<svg width="160" height="41" fill="none" xmlns="http://www.w3.org/2000/svg"><path d="M58.856 30V15.624h-5.592V13.08h14.28v2.544h-5.592V30h-3.096Zm8.736 0v-9.024c0-.512-.016-1.032-.048-1.56a15.722 15.722 0 0 0-.12-1.536h2.904l.336 3.312h-.48c.16-.8.424-1.464.792-1.992.384-.528.848-.92 1.392-1.176a4.118 4.118 0 0 1 1.776-.384c.288 0 .52.016.696.048.176.016.352.056.528.12l-.024 2.64a3.308 3.308 0 0 0-.792-.24 5.37 5.37 0 0 0-.792-.048c-.688 0-1.272.144-1.752.432a2.753 2.753 0 0 0-1.056 1.2c-.224.512-.336 1.096-.336 1.752V30h-3.024Zm14.01.24c-1.057 0-1.985-.248-2.785-.744-.8-.512-1.424-1.24-1.872-2.184-.448-.944-.672-2.072-.672-3.384 0-1.312.224-2.432.672-3.36.448-.944 1.072-1.664 1.872-2.16.8-.512 1.728-.768 2.784-.768 1.024 0 1.92.256 2.688.768.784.496 1.304 1.168 1.56 2.016h-.264l.264-2.544h2.88l-.144 1.512a24.239 24.239 0 0 0-.048 1.512V30h-2.976l-.024-2.496h.288c-.256.832-.776 1.496-1.56 1.992s-1.672.744-2.664.744Zm.84-2.304c.943 0 1.703-.328 2.28-.984.575-.672.863-1.68.863-3.024s-.288-2.344-.864-3c-.576-.656-1.336-.984-2.28-.984-.944 0-1.704.328-2.28.984-.576.656-.864 1.656-.864 3s.28 2.352.84 3.024c.576.656 1.344.984 2.304.984ZM92.62 30v-9.864h-2.328V17.88h3.168l-.84.768V16.8c0-1.504.384-2.64 1.152-3.408.784-.768 1.928-1.152 3.432-1.152.352 0 .72.024 1.104.072a3.6 3.6 0 0 1 1.032.264v2.352a3.853 3.853 0 0 0-.744-.192 5.107 5.107 0 0 0-.84-.072c-.416 0-.792.08-1.128.24-.32.16-.576.408-.768.744-.176.32-.264.752-.264 1.296v1.464l-.432-.528h3.624v2.256H95.62V30h-3Zm12.583.24c-1.056 0-1.984-.248-2.784-.744-.8-.512-1.424-1.24-1.872-2.184-.448-.944-.672-2.072-.672-3.384 0-1.312.224-2.432.672-3.36.448-.944 1.072-1.664 1.872-2.16.8-.512 1.728-.768 2.784-.768 1.024 0 1.92.256 2.688.768.784.496 1.304 1.168 1.56 2.016h-.264l.264-2.544h2.88l-.144 1.512a24.239 24.239 0 0 0-.048 1.512V30h-2.976l-.024-2.496h.288c-.256.832-.776 1.496-1.56 1.992s-1.672.744-2.664.744Zm.84-2.304c.944 0 1.704-.328 2.28-.984.576-.672.864-1.68.864-3.024s-.288-2.344-.864-3c-.576-.656-1.336-.984-2.28-.984-.944 0-1.704.328-2.28.984-.576.656-.864 1.656-.864 3s.28 2.352.84 3.024c.576.656 1.344.984 2.304.984ZM115.405 30V12.336h3V30h-3Zm11.874 5.376c-1.12 0-2.136-.12-3.048-.36a7.493 7.493 0 0 1-2.4-1.104l.648-2.16a7.69 7.69 0 0 0 1.44.744 8.415 8.415 0 0 0 1.536.432 8.97 8.97 0 0 0 1.608.144c1.12 0 1.952-.28 2.496-.84.56-.544.84-1.328.84-2.352v-2.904h.24c-.256.832-.776 1.496-1.56 1.992-.768.496-1.656.744-2.664.744-1.088 0-2.04-.24-2.856-.72-.8-.496-1.424-1.2-1.872-2.112-.448-.912-.672-1.984-.672-3.216 0-1.232.224-2.296.672-3.192.448-.912 1.072-1.608 1.872-2.088.816-.496 1.768-.744 2.856-.744 1.024 0 1.912.248 2.664.744.768.48 1.28 1.136 1.536 1.968l-.216-.144.24-2.328h2.904a24.239 24.239 0 0 0-.192 3.024v8.616c0 1.904-.52 3.352-1.56 4.344-1.024 1.008-2.528 1.512-4.512 1.512Zm-.048-7.968c.96 0 1.72-.32 2.28-.96.576-.656.864-1.584.864-2.784 0-1.2-.288-2.12-.864-2.76-.56-.64-1.32-.96-2.28-.96-.976 0-1.752.32-2.328.96-.576.64-.864 1.56-.864 2.76 0 1.2.288 2.128.864 2.784.576.64 1.352.96 2.328.96Zm14.042 2.832c-1.056 0-1.984-.248-2.784-.744-.8-.512-1.424-1.24-1.872-2.184-.448-.944-.672-2.072-.672-3.384 0-1.312.224-2.432.672-3.36.448-.944 1.072-1.664 1.872-2.16.8-.512 1.728-.768 2.784-.768 1.024 0 1.92.256 2.688.768.784.496 1.304 1.168 1.56 2.016h-.264l.264-2.544h2.88l-.144 1.512a24.239 24.239 0 0 0-.048 1.512V30h-2.976l-.024-2.496h.288c-.256.832-.776 1.496-1.56 1.992s-1.672.744-2.664.744Zm.84-2.304c.944 0 1.704-.328 2.28-.984.576-.672.864-1.68.864-3.024s-.288-2.344-.864-3c-.576-.656-1.336-.984-2.28-.984-.944 0-1.704.328-2.28.984-.576.656-.864 1.656-.864 3s.28 2.352.84 3.024c.576.656 1.344.984 2.304.984ZM151.452 30v-9.024c0-.512-.016-1.032-.048-1.56a15.722 15.722 0 0 0-.12-1.536h2.904l.336 3.312h-.48c.16-.8.424-1.464.792-1.992.384-.528.848-.92 1.392-1.176a4.118 4.118 0 0 1 1.776-.384c.288 0 .52.016.696.048.176.016.352.056.528.12l-.024 2.64a3.308 3.308 0 0 0-.792-.24 5.37 5.37 0 0 0-.792-.048c-.688 0-1.272.144-1.752.432a2.753 2.753 0 0 0-1.056 1.2c-.224.512-.336 1.096-.336 1.752V30h-3.024Z" fill="#233348"/><circle cx="20.5" cy="20.5" r="20.5" fill="#458FF6"/><path d="M19.344 31V15.426h-6.058V12.67h15.47v2.756h-6.058V31h-3.354Z" fill="#fff"/></svg>